<?xml version="1.0" encoding="utf-8"?>
<!-- Generator: Adobe Illustrator 25.2.0, SVG Export Plug-In . SVG Version: 6.00 Build 0)  -->
<svg version="1.1" id="Layer_1" xmlns="http://www.w3.org/2000/svg" xmlns:xlink="http://www.w3.org/1999/xlink" x="0px" y="0px"
	 viewBox="0 0 24 24" style="enable-background:new 0 0 24 24;" xml:space="preserve">
<style type="text/css">
	.st0{fill:none;}
	.st1{fill:#3335CF;}
</style>
<rect class="st0" width="24" height="24"/>
<path class="st1" d="M12,3L6,7.6V6H4v3.1l-3,2.3L2.2,13L4,11.6V21h16v-9.4l1.8,1.4l1.2-1.6L12,3z M18,19h-5v-4h-2v4H6v-8.9l6-4.6
	l6,4.6V19z M10,1c0,1.7-1.3,3-3,3C6.4,4,6,4.4,6,5H4c0-1.7,1.3-3,3-3c0.6,0,1-0.5,1-1H10z"/>
</svg>
