<?xml version="1.0" encoding="utf-8"?>
<!-- Generator: Adobe Illustrator 25.2.0, SVG Export Plug-In . SVG Version: 6.00 Build 0)  -->
<svg version="1.1" id="Layer_1" xmlns="http://www.w3.org/2000/svg" xmlns:xlink="http://www.w3.org/1999/xlink" x="0px" y="0px"
	 viewBox="0 0 24 24" style="enable-background:new 0 0 24 24;" xml:space="preserve">
<style type="text/css">
	.st0{fill:none;}
	.st1{fill:#3335CF;}
</style>
<rect class="st0" width="24" height="24"/>
<g>
	<path class="st1" d="M19.9,18.5c0.4-0.7,0.7-1.5,0.7-2.4c0-2.5-2-4.5-4.5-4.5s-4.5,2-4.5,4.5s2,4.5,4.5,4.5c0.9,0,1.7-0.3,2.4-0.7
		l3.1,3.1l1.4-1.4L19.9,18.5z M16.1,18.6c-1.4,0-2.5-1.1-2.5-2.5s1.1-2.5,2.5-2.5s2.5,1.1,2.5,2.5S17.5,18.6,16.1,18.6z M15.7,10.1
		c-0.7,0-1.4,0.2-2.1,0.4l-0.6-0.8l-3.8,6.2l-3-3.5l-3.6,5.8L1,17l5-8l3,3.5L13,6L15.7,10.1z M18.3,10.6c-0.6-0.3-1.3-0.4-2-0.5
		L21.4,2L23,3.2L18.3,10.6z"/>
</g>
</svg>
